<?xml version="1.0" encoding="utf-8"?>
<!-- Generator: Adobe Illustrator 25.2.0, SVG Export Plug-In . SVG Version: 6.00 Build 0)  -->
<svg version="1.1" id="Layer_1" xmlns="http://www.w3.org/2000/svg" xmlns:xlink="http://www.w3.org/1999/xlink" x="0px" y="0px"
	 viewBox="0 0 110.61 38.13" style="enable-background:new 0 0 110.61 38.13;" xml:space="preserve">
<style type="text/css">
	.st0{display:none;fill:#E6E7E8;stroke:#A3AFCF;stroke-width:0.25;stroke-miterlimit:10;}
	.st1{opacity:0.96;fill:#F9ED32;stroke:#A3AFCF;stroke-width:0.1;stroke-miterlimit:10;}
	.st2{font-family:'MyriadPro-Regular';}
	.st3{font-size:1.65px;}
	.st4{opacity:0.42;fill:#F9ED32;}
	.st5{font-family:'NirmalaUI';}
	.st6{font-size:0.8596px;}
	.st7{fill:url(#SVGID_1_);stroke:#A3AFCF;stroke-width:0.1;stroke-miterlimit:10;}
	.st8{fill:url(#SVGID_2_);stroke:#A3AFCF;stroke-width:0.1;stroke-miterlimit:10;}
	.st9{opacity:0.51;fill:#00A651;}
	.st10{fill:#1C75BC;}
	.st11{opacity:0.22;fill:#A7A9AC;}
	.st12{font-size:4.478px;}
	.st13{fill:#A7A9AC;stroke:#000000;stroke-width:0.2;stroke-miterlimit:10;}
	.st14{fill:url(#SVGID_3_);stroke:#000000;stroke-width:0.1;stroke-miterlimit:10;}
	.st15{fill:#E7E514;stroke:#000000;stroke-width:0.1;stroke-miterlimit:10;}
	.st16{fill:url(#SVGID_4_);stroke:#000000;stroke-width:0.1;stroke-miterlimit:10;}
	.st17{opacity:0.5;}
	.st18{font-size:2px;}
	.st19{fill:none;stroke:#000000;stroke-width:0.05;stroke-miterlimit:10;}
	.st20{fill:#07733B;stroke:#000000;stroke-width:0.05;stroke-miterlimit:10;}
	.st21{fill:#F1F2F2;}
</style>
<rect x="0.58" y="0.48" class="st0" width="109.55" height="36.87"/>
<path class="st1" d="M10.17,10.46v4.97h0.46l-0.97,2.8l-0.97-2.8h0.46v-4.96C7.21,10.34,5.7,9.51,5.7,8.5
	c0-1.09,1.77-1.97,3.96-1.97c2.19,0,3.96,0.88,3.96,1.97C13.63,9.5,12.12,10.33,10.17,10.46z"/>
<text transform="matrix(0.9765 0 0 1 7.9576 8.9095)" class="st2 st3">Excel</text>
<text transform="matrix(0.9765 0 0 1 15.8126 20.3346)" class="st2 st3">Operating System</text>
<path class="st4" d="M38.7,21.21H4.94c-0.8,0-1.45-0.65-1.45-1.45v0c0-0.8,0.65-1.45,1.45-1.45H38.7c0.8,0,1.45,0.65,1.45,1.45v0
	C40.15,20.56,39.5,21.21,38.7,21.21z"/>
<text transform="matrix(-1.608123e-16 -1.2326 1 -1.982182e-16 9.8897 16.4408)" class="st5 st6">Process</text>
<linearGradient id="SVGID_1_" gradientUnits="userSpaceOnUse" x1="16.7526" y1="12.347" x2="24.6739" y2="12.347">
	<stop  offset="0" style="stop-color:#2484C6"/>
	<stop  offset="1" style="stop-color:#2484C6;stop-opacity:0"/>
</linearGradient>
<path class="st7" d="M21.22,10.43v4.97h0.46l-0.97,2.8l-0.97-2.8h0.46v-4.96c-1.95-0.12-3.45-0.95-3.45-1.96
	c0-1.09,1.77-1.97,3.96-1.97c2.19,0,3.96,0.88,3.96,1.97C24.67,9.47,23.17,10.3,21.22,10.43z"/>
<text transform="matrix(0.9765 0 0 1 19.3904 9.2306)" class="st2 st3">VLC</text>
<text transform="matrix(-1.608123e-16 -1.2326 1 -1.982182e-16 21.2054 14.4519)" class="st5 st6">Process</text>
<linearGradient id="SVGID_2_" gradientUnits="userSpaceOnUse" x1="28.1684" y1="12.5074" x2="36.0897" y2="12.5074">
	<stop  offset="0" style="stop-color:#FFF33B"/>
	<stop  offset="0.0595" style="stop-color:#FFE029"/>
	<stop  offset="0.1303" style="stop-color:#FFD217"/>
	<stop  offset="0.2032" style="stop-color:#FEC90E"/>
	<stop  offset="0.2809" style="stop-color:#FDC70C"/>
	<stop  offset="0.6685" style="stop-color:#F3903F"/>
	<stop  offset="0.8876" style="stop-color:#ED683C"/>
	<stop  offset="1" style="stop-color:#E93E3A"/>
</linearGradient>
<path class="st8" d="M32.64,10.59v4.97h0.46l-0.97,2.8l-0.97-2.8h0.46v-4.96c-1.95-0.12-3.45-0.95-3.45-1.96
	c0-1.09,1.77-1.97,3.96-1.97c2.19,0,3.96,0.88,3.96,1.97C36.09,9.63,34.59,10.46,32.64,10.59z"/>
<text transform="matrix(0.9765 0 0 1 29.8075 9.2123)" class="st2 st3">Firefox</text>
<text transform="matrix(-1.608123e-16 -1.2326 1 -1.982182e-16 32.3087 14.8818)" class="st5 st6">Process</text>
<path class="st9" d="M26.01,29.66H15.19c-0.94,0-1.71-0.76-1.71-1.71v-2.06c0-0.94,0.76-1.71,1.71-1.71h10.82
	c0.94,0,1.71,0.76,1.71,1.71v2.06C27.72,28.89,26.95,29.66,26.01,29.66z"/>
<path class="st9" d="M100.81,24.15H89.99c-0.94,0-1.71-0.76-1.71-1.71v-9.33c0-0.94,0.76-1.71,1.71-1.71h10.82
	c0.94,0,1.71,0.76,1.71,1.71v9.33C102.52,23.39,101.75,24.15,100.81,24.15z"/>
<polygon class="st10" points="21.13,24.13 21.53,24.13 20.71,24.68 19.89,24.13 20.29,24.13 20.29,21.33 19.89,21.33 20.71,20.77 
	21.53,21.33 21.13,21.33 "/>
<polygon class="st10" points="82,18.02 82,18.42 80.97,17.6 82,16.78 82,17.18 87.24,17.18 87.24,16.78 88.29,17.6 87.24,18.42 
	87.24,18.02 "/>
<text transform="matrix(0.9765 0 0 1 93.9845 18.1875)" class="st2 st3">CPU</text>
<text transform="matrix(0.9765 0 0 1 19.0974 27.6069)" class="st2 st3">CPU</text>
<text transform="matrix(1.0929 0 0 1 5.2922 5.2887)" class="st11 st2 st12">Multi Threading</text>
<circle class="st13" cx="63.09" cy="19.06" r="17.78"/>
<linearGradient id="SVGID_3_" gradientUnits="userSpaceOnUse" x1="51.1825" y1="26.7646" x2="65.7566" y2="26.7646">
	<stop  offset="0" style="stop-color:#2484C6"/>
	<stop  offset="1" style="stop-color:#2484C6;stop-opacity:0"/>
</linearGradient>
<circle class="st14" cx="58.47" cy="26.76" r="7.29"/>
<circle class="st15" cx="58.93" cy="10.9" r="7.29"/>
<linearGradient id="SVGID_4_" gradientUnits="userSpaceOnUse" x1="65.3376" y1="19.634" x2="79.9116" y2="19.634">
	<stop  offset="0" style="stop-color:#FFF33B"/>
	<stop  offset="0.0595" style="stop-color:#FFE029"/>
	<stop  offset="0.1303" style="stop-color:#FFD217"/>
	<stop  offset="0.2032" style="stop-color:#FEC90E"/>
	<stop  offset="0.2809" style="stop-color:#FDC70C"/>
	<stop  offset="0.6685" style="stop-color:#F3903F"/>
	<stop  offset="0.8876" style="stop-color:#ED683C"/>
	<stop  offset="1" style="stop-color:#E93E3A"/>
</linearGradient>
<circle class="st16" cx="72.62" cy="19.63" r="7.29"/>
<text transform="matrix(0.8266 -0.5627 0.5627 0.8266 64.2824 36.0894)" class="st17 st2 st18">Operating System</text>
<polygon class="st19" points="55.98,14.64 57.47,5.91 64.28,11.57 "/>
<circle class="st20" cx="58.47" cy="26.17" r="1.44"/>
<circle class="st20" cx="56.05" cy="14.55" r="1.44"/>
<circle class="st20" cx="64.28" cy="11.39" r="1.44"/>
<circle class="st20" cx="57.49" cy="6.23" r="1.44"/>
<line class="st19" x1="69.46" y1="17.6" x2="75.66" y2="22.72"/>
<circle class="st20" cx="75.96" cy="22.72" r="1.44"/>
<circle class="st20" cx="69.1" cy="17.06" r="1.44"/>
<text transform="matrix(1 0 0 1 56.6586 6.8939)" class="st21 st2 st18">t1</text>
<text transform="matrix(1 0 0 1 68.2715 17.6036)" class="st21 st2 st18">t1</text>
<text transform="matrix(1 0 0 1 57.5371 26.6757)" class="st21 st2 st18">t1</text>
<text transform="matrix(1 0 0 1 63.5139 12.0938)" class="st21 st2 st18">t2</text>
<text transform="matrix(1 0 0 1 74.9811 23.2853)" class="st21 st2 st18">t2</text>
<text transform="matrix(1 0 0 1 55.0342 15.2742)" class="st21 st2 st18">t3</text>
</svg>
