<?xml version="1.0" encoding="utf-8"?>
<!-- Generator: Adobe Illustrator 25.2.0, SVG Export Plug-In . SVG Version: 6.00 Build 0)  -->
<svg version="1.1" id="Layer_1" xmlns="http://www.w3.org/2000/svg" xmlns:xlink="http://www.w3.org/1999/xlink" x="0px" y="0px"
	 viewBox="0 0 110.61 38.13" style="enable-background:new 0 0 110.61 38.13;" xml:space="preserve">
<style type="text/css">
	.st0{display:none;fill:#E6E7E8;stroke:#A3AFCF;stroke-width:0.25;stroke-miterlimit:10;}
	.st1{opacity:0.44;fill:#1C75BC;stroke:#A3AFCF;stroke-width:0.1;stroke-miterlimit:10;}
	.st2{font-family:'MyriadPro-Regular';}
	.st3{font-size:1.65px;}
	.st4{opacity:0.42;fill:#F9ED32;}
	.st5{font-family:'NirmalaUI';}
	.st6{font-size:0.8596px;}
	.st7{fill:#8DC63F;stroke:#A3AFCF;stroke-width:0.1;stroke-miterlimit:10;}
	.st8{opacity:0.5;fill:#EF4136;stroke:#A3AFCF;stroke-width:0.1;stroke-miterlimit:10;}
	.st9{fill:#FFF200;stroke:#A3AFCF;stroke-width:0.1;stroke-miterlimit:10;}
	.st10{opacity:0.51;fill:#00A651;}
	.st11{fill:#1C75BC;}
	.st12{opacity:0.22;fill:#A7A9AC;}
	.st13{font-size:4.478px;}
</style>
<rect x="0.58" y="0.48" class="st0" width="109.55" height="36.87"/>
<g>
	<path class="st1" d="M9.2,9.84v4.97h0.46l-0.97,2.8l-0.97-2.8h0.46V9.84C6.24,9.72,4.73,8.89,4.73,7.88c0-1.09,1.77-1.97,3.96-1.97
		c2.19,0,3.96,0.88,3.96,1.97C12.65,8.88,11.15,9.71,9.2,9.84z"/>
	<text transform="matrix(0.9765 0 0 1 6.9854 8.2873)" class="st2 st3">Excel</text>
	<text transform="matrix(0.9765 0 0 1 16.4259 20.2082)" class="st2 st3">Operating System</text>
	<path class="st4" d="M39.31,21.08H5.55c-0.8,0-1.45-0.65-1.45-1.45v0c0-0.8,0.65-1.45,1.45-1.45h33.76c0.8,0,1.45,0.65,1.45,1.45v0
		C40.76,20.43,40.11,21.08,39.31,21.08z"/>
	<text transform="matrix(-1.608123e-16 -1.2326 1 -1.982182e-16 8.9176 15.8186)" class="st5 st6">Process</text>
	<path class="st7" d="M17.9,9.84v4.97h0.46l-0.97,2.8l-0.97-2.8h0.46V9.84c-1.95-0.12-3.45-0.95-3.45-1.96
		c0-1.09,1.77-1.97,3.96-1.97c2.19,0,3.96,0.88,3.96,1.97C21.35,8.88,19.85,9.71,17.9,9.84z"/>
	<text transform="matrix(0.9765 0 0 1 16.1275 8.2873)" class="st2 st3">VLC</text>
	<text transform="matrix(-1.608123e-16 -1.2326 1 -1.982182e-16 17.671 15.7209)" class="st5 st6">Process</text>
	<path class="st8" d="M27.3,9.84v4.97h0.46l-0.97,2.8l-0.97-2.8h0.46V9.84c-1.95-0.12-3.45-0.95-3.45-1.96
		c0-1.09,1.77-1.97,3.96-1.97c2.19,0,3.96,0.88,3.96,1.97C30.75,8.88,29.25,9.71,27.3,9.84z"/>
	<text transform="matrix(0.9765 0 0 1 24.5865 8.2873)" class="st2 st3">WORD</text>
	<text transform="matrix(-1.608123e-16 -1.2326 1 -1.982182e-16 27.0176 15.8186)" class="st5 st6">Process</text>
	<path class="st9" d="M36.17,9.84v4.97h0.46l-0.97,2.8l-0.97-2.8h0.46V9.84c-1.95-0.12-3.45-0.95-3.45-1.96
		c0-1.09,1.77-1.97,3.96-1.97c2.19,0,3.96,0.88,3.96,1.97C39.63,8.88,38.12,9.71,36.17,9.84z"/>
	<text transform="matrix(0.9765 0 0 1 33.418 8.2873)" class="st2 st3">Firefox</text>
	<text transform="matrix(-1.608123e-16 -1.2326 1 -1.982182e-16 35.8892 15.8186)" class="st5 st6">Process</text>
	<path class="st10" d="M20.11,30.84H9.29c-0.94,0-1.71-0.76-1.71-1.71v-2.06c0-0.94,0.76-1.71,1.71-1.71h10.82
		c0.94,0,1.71,0.76,1.71,1.71v2.06C21.82,30.07,21.05,30.84,20.11,30.84z"/>
	<path class="st10" d="M35.57,30.84H24.75c-0.94,0-1.71-0.76-1.71-1.71v-2.06c0-0.94,0.76-1.71,1.71-1.71h10.82
		c0.94,0,1.71,0.76,1.71,1.71v2.06C37.28,30.07,36.51,30.84,35.57,30.84z"/>
	<polygon class="st11" points="14.06,23.72 13.24,24.28 12.42,23.72 12.82,23.72 12.82,21.17 13.66,21.17 13.66,23.72 	"/>
	<polygon class="st11" points="31.57,23.72 30.75,24.28 29.93,23.72 30.33,23.72 30.33,21.17 31.17,21.17 31.17,23.72 	"/>
	<text transform="matrix(0.9765 0 0 1 12.6476 28.5534)" class="st2 st3">CPU 1</text>
	<text transform="matrix(0.9765 0 0 1 27.6559 28.7374)" class="st2 st3">CPU 2</text>
</g>
<text transform="matrix(1.0929 0 0 1 5.6423 4.7929)" class="st12 st2 st13">Multi Processing</text>
</svg>
